Moton_kv03_j
version=1
nRows=8
nColumns=43
inDegrees=yes
endheader
time	pelvis_tilt	pelvis_list	pelvis_rotation	pelvis_tx	pelvis_ty	pelvis_tz	hip_flexion_r	hip_adduction_r	hip_rotation_r	knee_angle_r	ankle_angle_r	subtalar_angle_r	mtp_angle_r	hip_flexion_l	hip_adduction_l	hip_rotation_l	knee_angle_l	ankle_angle_l	subtalar_angle_l	mtp_angle_l	lumbar_extension	lumbar_bending	lumbar_rotation	neck_flexion	neck_lateral_bending	neck_rotation	arm_flex_r	arm_add_r	arm_rot_r	elbow_flex_r	pro_sup_r	wrist_flex_r	wrist_dev_r	hand_finger_flex_r	arm_flex_l	arm_add_l	arm_rot_l	elbow_flex_l	pro_sup_l	wrist_flex_l	wrist_dev_l	hand_finger_flex_l
      0.00250000	     -0.27277059	    -14.17278424	    -88.13169880	     -0.04425865	      0.96707370	      0.20846577	    -21.95295440	     -0.58772321	    -19.91386979	     -1.00625022	     13.43423712	     21.67591752	      0.16738615	    -20.95140591	     -6.06613320	    -20.49461488	     -1.45101374	      6.24493710	     37.84716589	      4.87775562	    -25.70946118	      1.26675430	      2.00257166	     -8.65822178	      1.35074333	     -4.63451302	    -24.02722895	    -20.09907576	    -60.21456281	     77.94926936	    103.53133498	     -2.39739461	    -24.99996892	     -2.03743216	    -24.59827096	    -35.97305974	    -67.95425495	     63.92150642	     96.76058490	    -16.07883029	    -12.61853557	      3.73147572
      0.00500000	      0.10310236	    -14.63537361	    -87.93739418	     -0.04391955	      0.96764101	      0.20879421	    -22.54841980	     -0.91384182	    -21.01520216	     -0.98105061	     13.72802856	     22.82531411	     -0.18302355	    -21.51624867	     -5.69405942	    -20.03843091	     -1.31361264	      6.12070107	     37.38957537	      4.94557460	    -26.28510071	      0.93515578	      1.39914166	     -8.38914215	      1.58310770	     -4.02403497	    -23.41249582	    -20.05781151	    -59.01691508	     77.53452460	    102.83342591	     -2.10540598	    -24.99999983	     -1.50217482	    -24.97812635	    -35.64673024	    -67.30726592	     63.87082081	     96.35235826	    -17.44288806	    -13.20674928	      4.19362211
      0.00750000	      0.10298672	    -14.63918827	    -87.89934572	     -0.04387626	      0.96748015	      0.20875506	    -22.56025293	     -0.89655293	    -21.03382285	     -0.96347606	     13.75606687	     22.86894353	     -0.19070423	    -21.52217190	     -5.69922055	    -20.07631319	     -1.28799664	      6.16495593	     37.39215710	      4.95507324	    -26.38131762	      0.96627826	      1.35448357	     -8.35726446	      1.57115459	     -4.02660805	    -23.14242688	    -19.74643296	    -58.40887357	     77.42711032	    102.89247732	     -1.99106729	    -24.98065167	     -1.46111663	    -24.71075994	    -35.26455564	    -66.68770625	     63.95557326	     96.38248060	    -17.30552238	    -13.20712998	      4.25816385
      0.01000000	      0.07557163	    -14.73497096	    -87.86159119	     -0.04354058	      0.96755919	      0.20876117	    -22.64514370	     -0.88973017	    -21.09593617	     -1.02807027	     13.77519246	     22.95893214	     -0.21838894	    -21.59586651	     -5.73991888	    -20.07899527	     -1.35523749	      6.20427462	     37.41943516	      4.96957284	    -26.54412936	      1.04907360	      1.34787390	     -8.27571730	      1.54581146	     -4.02137299	    -22.76960148	    -19.63682111	    -57.76416109	     76.96953035	    102.95610146	     -1.86588862	    -24.91882860	     -1.40784111	    -24.29631952	    -34.92444778	    -65.91527003	     63.87968613	     96.39574389	    -17.20939213	    -13.17063267	      4.34369963
      0.01250000	      0.04476673	    -14.83480943	    -87.86039641	     -0.04345511	      0.96760238	      0.20866234	    -22.73364196	     -0.86065557	    -21.16371346	     -1.06052784	     13.79401201	     23.05283584	     -0.24955736	    -21.68885646	     -5.77785334	    -20.08365826	     -1.37736663	      6.24610777	     37.44205394	      4.98397124	    -26.74461622	      1.10860454	      1.35219639	     -8.18268345	      1.54656676	     -4.02004862	    -22.41468459	    -19.44200206	    -57.11829789	     76.66534921	    102.98975325	     -1.72134385	    -24.94581294	     -1.34997600	    -23.94160086	    -34.59252939	    -65.16860596	     63.81510343	     96.42041082	    -17.17741231	    -13.17104178	      4.40919823
      0.01500000	      0.02180431	    -14.93571535	    -87.86611234	     -0.04332946	      0.96762015	      0.20862290	    -22.83481183	     -0.84329852	    -21.21963503	     -1.07411314	     13.82036029	     23.14192719	     -0.27780820	    -21.79924640	     -5.79445087	    -20.10030816	     -1.38068343	      6.28859112	     37.46149045	      4.99712866	    -26.94858280	      1.16307379	      1.35969734	     -8.05592485	      1.54423643	     -4.02172082	    -22.06149246	    -19.23821145	    -56.49204192	     76.35640525	    103.00755052	     -1.57342798	    -24.97947307	     -1.29522497	    -23.62051915	    -34.25581466	    -64.40323866	     63.75974368	     96.45982312	    -17.16371711	    -13.19136944	      4.45599173
      0.01750000	      0.01581331	    -14.94568008	    -87.89268270	     -0.04344047	      0.96737591	      0.20875024	    -22.86913280	     -0.83357904	    -21.24441651	     -1.03733787	     13.85669006	     23.16688217	     -0.28146553	    -21.84369837	     -5.79791986	    -20.11897581	     -1.34216982	      6.32775597	     37.47167635	      5.00390480	    -27.03889909	      1.17158392	      1.33916989	     -7.98677500	      1.55832838	     -4.02751403	    -21.77616662	    -18.88162954	    -55.88866922	     76.31012229	    103.04469277	     -1.44264628	    -24.99999983	     -1.25576713	    -23.39822806	    -33.86004045	    -63.79440772	     63.80544171	     96.50706766	    -17.06989224	    -13.20804054	      4.48930123
      0.02000000	     -0.00466630	    -15.11573050	    -87.90535112	     -0.04313953	      0.96760500	      0.20849097	    -23.00738453	     -0.84935070	    -21.27799904	     -1.10548413	     13.89101753	     23.26877284	     -0.30808921	    -22.00396696	     -5.80403583	    -20.14260984	     -1.37634971	      6.37420573	     37.50143231	      5.01668939	    -27.34954518	      1.23089507	      1.38028480	     -7.76987035	      1.55099202	     -4.03961436	    -21.30558172	    -18.83053598	    -55.22226822	     75.73629171	    103.04704462	     -1.27781832	    -24.98066180	     -1.20096736	    -23.00736176	    -33.60458990	    -62.86581002	     63.62939545	     96.57802582	    -17.07401726	    -13.21641752	      4.49703405
